<svg width="358" height="73" viewBox="0 0 358 73" fill="none" xmlns="http://www.w3.org/2000/svg">
<rect width="357.333" height="72" transform="translate(0.666626 0.363281)" fill="white"/>
<path d="M28.2308 29.3753H25.0868L24.5828 30.8633H22.4348L25.4828 22.4393H27.8588L30.9068 30.8633H28.7348L28.2308 29.3753ZM27.7028 27.7913L26.6588 24.7073L25.6268 27.7913H27.7028Z" fill="#343434"/>
<path d="M57.5555 26.5433C58.0435 26.6473 58.4355 26.8913 58.7315 27.2753C59.0275 27.6513 59.1755 28.0833 59.1755 28.5713C59.1755 29.2753 58.9275 29.8353 58.4315 30.2513C57.9435 30.6593 57.2595 30.8633 56.3795 30.8633H52.4555V22.4393H56.2475C57.1035 22.4393 57.7715 22.6353 58.2515 23.0273C58.7395 23.4193 58.9835 23.9513 58.9835 24.6233C58.9835 25.1193 58.8515 25.5313 58.5875 25.8593C58.3315 26.1873 57.9875 26.4153 57.5555 26.5433ZM54.5075 25.8473H55.8515C56.1875 25.8473 56.4435 25.7753 56.6195 25.6313C56.8035 25.4793 56.8955 25.2593 56.8955 24.9713C56.8955 24.6833 56.8035 24.4633 56.6195 24.3113C56.4435 24.1593 56.1875 24.0833 55.8515 24.0833H54.5075V25.8473ZM56.0195 29.2073C56.3635 29.2073 56.6275 29.1313 56.8115 28.9793C57.0035 28.8193 57.0995 28.5913 57.0995 28.2953C57.0995 27.9993 56.9995 27.7673 56.7995 27.5993C56.6075 27.4313 56.3395 27.3473 55.9955 27.3473H54.5075V29.2073H56.0195Z" fill="#343434"/>
<path d="M132.374 22.4393C133.262 22.4393 134.038 22.6153 134.702 22.9673C135.366 23.3193 135.878 23.8153 136.238 24.4553C136.606 25.0873 136.79 25.8193 136.79 26.6513C136.79 27.4753 136.606 28.2073 136.238 28.8473C135.878 29.4873 135.362 29.9833 134.69 30.3353C134.026 30.6873 133.254 30.8633 132.374 30.8633H129.218V22.4393H132.374ZM132.242 29.0873C133.018 29.0873 133.622 28.8753 134.054 28.4513C134.486 28.0273 134.702 27.4273 134.702 26.6513C134.702 25.8753 134.486 25.2713 134.054 24.8393C133.622 24.4073 133.018 24.1913 132.242 24.1913H131.27V29.0873H132.242Z" fill="#343434"/>
<path d="M163.05 24.0833V25.7873H165.798V27.3713H163.05V29.2193H166.158V30.8633H160.998V22.4393H166.158V24.0833H163.05Z" fill="#343434"/>
<path d="M197.113 22.4393V24.0833H193.681V25.8593H196.249V27.4553H193.681V30.8633H191.629V22.4393H197.113Z" fill="#343434"/>
<path d="M226.599 25.1033C226.447 24.8233 226.227 24.6113 225.939 24.4673C225.659 24.3153 225.327 24.2393 224.943 24.2393C224.279 24.2393 223.747 24.4593 223.347 24.8993C222.947 25.3313 222.747 25.9113 222.747 26.6393C222.747 27.4153 222.955 28.0233 223.371 28.4633C223.795 28.8953 224.375 29.1113 225.111 29.1113C225.615 29.1113 226.039 28.9833 226.383 28.7273C226.735 28.4713 226.991 28.1033 227.151 27.6233H224.547V26.1113H229.011V28.0193C228.859 28.5313 228.599 29.0073 228.231 29.4473C227.871 29.8873 227.411 30.2433 226.851 30.5153C226.291 30.7873 225.659 30.9233 224.955 30.9233C224.123 30.9233 223.379 30.7433 222.723 30.3833C222.075 30.0153 221.567 29.5073 221.199 28.8593C220.839 28.2113 220.659 27.4713 220.659 26.6393C220.659 25.8073 220.839 25.0673 221.199 24.4193C221.567 23.7633 222.075 23.2553 222.723 22.8953C223.371 22.5273 224.111 22.3433 224.943 22.3433C225.951 22.3433 226.799 22.5873 227.487 23.0753C228.183 23.5633 228.643 24.2393 228.867 25.1033H226.599Z" fill="#343434"/>
<path d="M303.766 25.1033C303.614 24.8233 303.394 24.6113 303.106 24.4673C302.826 24.3153 302.494 24.2393 302.11 24.2393C301.446 24.2393 300.914 24.4593 300.514 24.8993C300.114 25.3313 299.914 25.9113 299.914 26.6393C299.914 27.4153 300.122 28.0233 300.538 28.4633C300.962 28.8953 301.542 29.1113 302.278 29.1113C302.782 29.1113 303.206 28.9833 303.55 28.7273C303.902 28.4713 304.158 28.1033 304.318 27.6233H301.714V26.1113H306.178V28.0193C306.026 28.5313 305.766 29.0073 305.398 29.4473C305.038 29.8873 304.578 30.2433 304.018 30.5153C303.458 30.7873 302.826 30.9233 302.122 30.9233C301.29 30.9233 300.546 30.7433 299.89 30.3833C299.242 30.0153 298.734 29.5073 298.366 28.8593C298.006 28.2113 297.826 27.4713 297.826 26.6393C297.826 25.8073 298.006 25.0673 298.366 24.4193C298.734 23.7633 299.242 23.2553 299.89 22.8953C300.538 22.5273 301.278 22.3433 302.11 22.3433C303.118 22.3433 303.966 22.5873 304.654 23.0753C305.35 23.5633 305.81 24.2393 306.034 25.1033H303.766Z" fill="#343434"/>
<path d="M335.651 22.4393V30.8633H333.599V27.3953H330.407V30.8633H328.355V22.4393H330.407V25.7393H333.599V22.4393H335.651Z" fill="#343434"/>
<path d="M16.6666 37.3633V50.3633C16.6666 50.9156 17.1143 51.3633 17.6666 51.3633H35.6666C36.2189 51.3633 36.6666 50.9156 36.6666 50.3633V37.3633C36.6666 36.811 36.2189 36.3633 35.6666 36.3633H17.6666C17.1143 36.3633 16.6666 36.811 16.6666 37.3633Z" fill="#D6DEE6"/>
<path d="M35.5309 51.3633H17.8024C17.1999 51.3633 16.7341 51.8922 16.8105 52.4899L17.1934 55.4899C17.2572 55.9892 17.6821 56.3633 18.1854 56.3633H35.1479C35.6512 56.3633 36.0761 55.9892 36.1398 55.4899L36.5228 52.4899C36.5991 51.8922 36.1334 51.3633 35.5309 51.3633Z" fill="#8C9EB0"/>
<g clip-path="url(#clip0_1_565)">
<path d="M23.1316 47.8983C22.6541 47.437 22.2732 46.8853 22.0111 46.2753C21.7491 45.6653 21.6112 45.0092 21.6054 44.3453C21.5996 43.6814 21.7261 43.023 21.9775 42.4085C22.2289 41.794 22.6002 41.2357 23.0697 40.7663C23.5391 40.2968 24.0974 39.9256 24.7119 39.6742C25.3263 39.4227 25.9847 39.2962 26.6486 39.302C27.3125 39.3078 27.9686 39.4457 28.5787 39.7078C29.1887 39.9698 29.7404 40.3507 30.2016 40.8283C31.1124 41.7713 31.6164 43.0343 31.605 44.3453C31.5936 45.6562 31.0678 46.9103 30.1407 47.8374C29.2137 48.7644 27.9596 49.2902 26.6486 49.3016C25.3377 49.313 24.0746 48.8091 23.1316 47.8983ZM23.8366 47.1933C24.5872 47.9438 25.6052 48.3655 26.6666 48.3655C27.7281 48.3655 28.7461 47.9438 29.4966 47.1933C30.2472 46.4427 30.6689 45.4247 30.6689 44.3633C30.6689 43.3018 30.2472 42.2838 29.4966 41.5333C28.7461 40.7827 27.7281 40.361 26.6666 40.361C25.6052 40.361 24.5872 40.7827 23.8366 41.5333C23.0861 42.2838 22.6644 43.3018 22.6644 44.3633C22.6644 45.4247 23.0861 46.4427 23.8366 47.1933ZM28.7866 42.9483L27.3716 44.3633L28.7866 45.7783L28.0816 46.4833L26.6666 45.0683L25.2516 46.4833L24.5466 45.7783L25.9616 44.3633L24.5466 42.9483L25.2516 42.2433L26.6666 43.6583L28.0816 42.2433L28.7866 42.9483Z" fill="#8C9EB0"/>
</g>
<path d="M50.5926 37.3633V50.3633C50.5926 50.9156 51.0403 51.3633 51.5926 51.3633H69.5926C70.1448 51.3633 70.5926 50.9156 70.5926 50.3633V37.3633C70.5926 36.811 70.1448 36.3633 69.5926 36.3633H51.5926C51.0403 36.3633 50.5926 36.811 50.5926 37.3633Z" fill="#C7E4FA"/>
<path d="M69.4568 51.3633H51.7283C51.1258 51.3633 50.6601 51.8922 50.7364 52.4899L51.1194 55.4899C51.1831 55.9892 51.608 56.3633 52.1113 56.3633H69.0738C69.5771 56.3633 70.002 55.9892 70.0658 55.4899L70.4487 52.4899C70.525 51.8922 70.0593 51.3633 69.4568 51.3633Z" fill="#5A88AB"/>
<path d="M88.6725 44.0113V42.1033H91.9965V50.8633H89.8605V44.0113H88.6725ZM93.4003 46.3633C93.4003 44.9873 93.6643 43.9033 94.1923 43.1113C94.7283 42.3193 95.5883 41.9233 96.7723 41.9233C97.9563 41.9233 98.8123 42.3193 99.3403 43.1113C99.8763 43.9033 100.144 44.9873 100.144 46.3633C100.144 47.7553 99.8763 48.8473 99.3403 49.6393C98.8123 50.4313 97.9563 50.8273 96.7723 50.8273C95.5883 50.8273 94.7283 50.4313 94.1923 49.6393C93.6643 48.8473 93.4003 47.7553 93.4003 46.3633ZM98.1283 46.3633C98.1283 45.5553 98.0403 44.9353 97.8643 44.5033C97.6883 44.0633 97.3243 43.8433 96.7723 43.8433C96.2203 43.8433 95.8563 44.0633 95.6803 44.5033C95.5043 44.9353 95.4163 45.5553 95.4163 46.3633C95.4163 46.9073 95.4483 47.3593 95.5123 47.7193C95.5763 48.0713 95.7043 48.3593 95.8963 48.5833C96.0963 48.7993 96.3883 48.9073 96.7723 48.9073C97.1563 48.9073 97.4443 48.7993 97.6363 48.5833C97.8363 48.3593 97.9683 48.0713 98.0323 47.7193C98.0963 47.3593 98.1283 46.9073 98.1283 46.3633Z" fill="#343434"/>
<path d="M118.444 37.3633V50.3633C118.444 50.9156 118.892 51.3633 119.444 51.3633H137.444C137.997 51.3633 138.444 50.9156 138.444 50.3633V37.3633C138.444 36.811 137.997 36.3633 137.444 36.3633H119.444C118.892 36.3633 118.444 36.811 118.444 37.3633Z" fill="#BFE8E2"/>
<path d="M137.309 51.3633H119.58C118.978 51.3633 118.512 51.8922 118.588 52.4899L118.971 55.4899C119.035 55.9892 119.46 56.3633 119.963 56.3633H136.926C137.429 56.3633 137.854 55.9892 137.918 55.4899L138.301 52.4899C138.377 51.8922 137.911 51.3633 137.309 51.3633Z" fill="#78ADA5"/>
<path d="M152.37 37.3633V50.3633C152.37 50.9156 152.818 51.3633 153.37 51.3633H171.37C171.923 51.3633 172.37 50.9156 172.37 50.3633V37.3633C172.37 36.811 171.923 36.3633 171.37 36.3633H153.37C152.818 36.3633 152.37 36.811 152.37 37.3633Z" fill="#BFE8E2"/>
<path d="M171.235 51.3633H153.506C152.904 51.3633 152.438 51.8922 152.514 52.4899L152.897 55.4899C152.961 55.9892 153.386 56.3633 153.889 56.3633H170.852C171.355 56.3633 171.78 55.9892 171.843 55.4899L172.226 52.4899C172.303 51.8922 171.837 51.3633 171.235 51.3633Z" fill="#78ADA5"/>
<path d="M186.296 37.3633V50.3633C186.296 50.9156 186.744 51.3633 187.296 51.3633H205.296C205.849 51.3633 206.296 50.9156 206.296 50.3633V37.3633C206.296 36.811 205.849 36.3633 205.296 36.3633H187.296C186.744 36.3633 186.296 36.811 186.296 37.3633Z" fill="#C7E4FA"/>
<path d="M205.16 51.3633H187.432C186.829 51.3633 186.364 51.8922 186.44 52.4899L186.823 55.4899C186.887 55.9892 187.312 56.3633 187.815 56.3633H204.777C205.281 56.3633 205.706 55.9892 205.769 55.4899L206.152 52.4899C206.229 51.8922 205.763 51.3633 205.16 51.3633Z" fill="#5A88AB"/>
<path d="M220.222 37.3633V50.3633C220.222 50.9156 220.67 51.3633 221.222 51.3633H239.222C239.774 51.3633 240.222 50.9156 240.222 50.3633V37.3633C240.222 36.811 239.774 36.3633 239.222 36.3633H221.222C220.67 36.3633 220.222 36.811 220.222 37.3633Z" fill="#D6DEE6"/>
<path d="M239.086 51.3633H221.358C220.755 51.3633 220.29 51.8922 220.366 52.4899L220.749 55.4899C220.813 55.9892 221.238 56.3633 221.741 56.3633H238.703C239.207 56.3633 239.632 55.9892 239.695 55.4899L240.078 52.4899C240.155 51.8922 239.689 51.3633 239.086 51.3633Z" fill="#8C9EB0"/>
<g clip-path="url(#clip1_1_565)">
<path d="M226.687 47.8983C226.21 47.437 225.829 46.8853 225.567 46.2753C225.305 45.6653 225.167 45.0092 225.161 44.3453C225.155 43.6814 225.282 43.023 225.533 42.4085C225.784 41.794 226.156 41.2357 226.625 40.7663C227.095 40.2968 227.653 39.9256 228.267 39.6742C228.882 39.4227 229.54 39.2962 230.204 39.302C230.868 39.3078 231.524 39.4457 232.134 39.7078C232.744 39.9698 233.296 40.3507 233.757 40.8283C234.668 41.7713 235.172 43.0343 235.161 44.3453C235.149 45.6562 234.623 46.9103 233.696 47.8374C232.769 48.7644 231.515 49.2902 230.204 49.3016C228.893 49.313 227.63 48.8091 226.687 47.8983ZM227.392 47.1933C228.143 47.9438 229.161 48.3655 230.222 48.3655C231.284 48.3655 232.302 47.9438 233.052 47.1933C233.803 46.4427 234.224 45.4247 234.224 44.3633C234.224 43.3018 233.803 42.2838 233.052 41.5333C232.302 40.7827 231.284 40.361 230.222 40.361C229.161 40.361 228.143 40.7827 227.392 41.5333C226.642 42.2838 226.22 43.3018 226.22 44.3633C226.22 45.4247 226.642 46.4427 227.392 47.1933ZM232.342 42.9483L230.927 44.3633L232.342 45.7783L231.637 46.4833L230.222 45.0683L228.807 46.4833L228.102 45.7783L229.517 44.3633L228.102 42.9483L228.807 42.2433L230.222 43.6583L231.637 42.2433L232.342 42.9483Z" fill="#8C9EB0"/>
</g>
<path d="M257.972 44.0113V42.1033H261.296V50.8633H259.16V44.0113H257.972ZM262.7 46.3633C262.7 44.9873 262.964 43.9033 263.492 43.1113C264.028 42.3193 264.888 41.9233 266.072 41.9233C267.256 41.9233 268.112 42.3193 268.64 43.1113C269.176 43.9033 269.444 44.9873 269.444 46.3633C269.444 47.7553 269.176 48.8473 268.64 49.6393C268.112 50.4313 267.256 50.8273 266.072 50.8273C264.888 50.8273 264.028 50.4313 263.492 49.6393C262.964 48.8473 262.7 47.7553 262.7 46.3633ZM267.428 46.3633C267.428 45.5553 267.34 44.9353 267.164 44.5033C266.988 44.0633 266.624 43.8433 266.072 43.8433C265.52 43.8433 265.156 44.0633 264.98 44.5033C264.804 44.9353 264.716 45.5553 264.716 46.3633C264.716 46.9073 264.748 47.3593 264.812 47.7193C264.876 48.0713 265.004 48.3593 265.196 48.5833C265.396 48.7993 265.688 48.9073 266.072 48.9073C266.456 48.9073 266.744 48.7993 266.936 48.5833C267.136 48.3593 267.268 48.0713 267.332 47.7193C267.396 47.3593 267.428 46.9073 267.428 46.3633Z" fill="#343434"/>
<path d="M288.074 37.3633V50.3633C288.074 50.9156 288.522 51.3633 289.074 51.3633H307.074C307.626 51.3633 308.074 50.9156 308.074 50.3633V37.3633C308.074 36.811 307.626 36.3633 307.074 36.3633H289.074C288.522 36.3633 288.074 36.811 288.074 37.3633Z" fill="#D6DEE6"/>
<path d="M306.938 51.3633H289.21C288.607 51.3633 288.141 51.8922 288.218 52.4899L288.601 55.4899C288.665 55.9892 289.089 56.3633 289.593 56.3633H306.555C307.059 56.3633 307.483 55.9892 307.547 55.4899L307.93 52.4899C308.006 51.8922 307.541 51.3633 306.938 51.3633Z" fill="#8C9EB0"/>
<g clip-path="url(#clip2_1_565)">
<path d="M294.539 47.8983C294.061 47.437 293.68 46.8853 293.418 46.2753C293.156 45.6653 293.018 45.0092 293.013 44.3453C293.007 43.6814 293.133 43.023 293.385 42.4085C293.636 41.794 294.008 41.2357 294.477 40.7663C294.946 40.2968 295.505 39.9256 296.119 39.6742C296.734 39.4227 297.392 39.2962 298.056 39.302C298.72 39.3078 299.376 39.4457 299.986 39.7078C300.596 39.9698 301.148 40.3507 301.609 40.8283C302.52 41.7713 303.024 43.0343 303.012 44.3453C303.001 45.6562 302.475 46.9103 301.548 47.8374C300.621 48.7644 299.367 49.2902 298.056 49.3016C296.745 49.313 295.482 48.8091 294.539 47.8983ZM295.244 47.1933C295.995 47.9438 297.012 48.3655 298.074 48.3655C299.135 48.3655 300.153 47.9438 300.904 47.1933C301.655 46.4427 302.076 45.4247 302.076 44.3633C302.076 43.3018 301.655 42.2838 300.904 41.5333C300.153 40.7827 299.135 40.361 298.074 40.361C297.012 40.361 295.995 40.7827 295.244 41.5333C294.493 42.2838 294.072 43.3018 294.072 44.3633C294.072 45.4247 294.493 46.4427 295.244 47.1933ZM300.194 42.9483L298.779 44.3633L300.194 45.7783L299.489 46.4833L298.074 45.0683L296.659 46.4833L295.954 45.7783L297.369 44.3633L295.954 42.9483L296.659 42.2433L298.074 43.6583L299.489 42.2433L300.194 42.9483Z" fill="#8C9EB0"/>
</g>
<path d="M322 37.3633V50.3633C322 50.9156 322.448 51.3633 323 51.3633H341C341.552 51.3633 342 50.9156 342 50.3633V37.3633C342 36.811 341.552 36.3633 341 36.3633H323C322.448 36.3633 322 36.811 322 37.3633Z" fill="#D6DEE6"/>
<path d="M340.864 51.3633H323.136C322.533 51.3633 322.067 51.8922 322.144 52.4899L322.527 55.4899C322.59 55.9892 323.015 56.3633 323.519 56.3633H340.481C340.985 56.3633 341.409 55.9892 341.473 55.4899L341.856 52.4899C341.932 51.8922 341.467 51.3633 340.864 51.3633Z" fill="#8C9EB0"/>
<g clip-path="url(#clip3_1_565)">
<path d="M328.465 47.8983C327.987 47.437 327.606 46.8853 327.344 46.2753C327.082 45.6653 326.944 45.0092 326.939 44.3453C326.933 43.6814 327.059 43.023 327.311 42.4085C327.562 41.794 327.933 41.2357 328.403 40.7663C328.872 40.2968 329.431 39.9256 330.045 39.6742C330.66 39.4227 331.318 39.2962 331.982 39.302C332.646 39.3078 333.302 39.4457 333.912 39.7078C334.522 39.9698 335.074 40.3507 335.535 40.8283C336.446 41.7713 336.95 43.0343 336.938 44.3453C336.927 45.6562 336.401 46.9103 335.474 47.8374C334.547 48.7644 333.293 49.2902 331.982 49.3016C330.671 49.313 329.408 48.8091 328.465 47.8983ZM329.17 47.1933C329.92 47.9438 330.938 48.3655 332 48.3655C333.061 48.3655 334.079 47.9438 334.83 47.1933C335.58 46.4427 336.002 45.4247 336.002 44.3633C336.002 43.3018 335.58 42.2838 334.83 41.5333C334.079 40.7827 333.061 40.361 332 40.361C330.938 40.361 329.92 40.7827 329.17 41.5333C328.419 42.2838 327.998 43.3018 327.998 44.3633C327.998 45.4247 328.419 46.4427 329.17 47.1933ZM334.12 42.9483L332.705 44.3633L334.12 45.7783L333.415 46.4833L332 45.0683L330.585 46.4833L329.88 45.7783L331.295 44.3633L329.88 42.9483L330.585 42.2433L332 43.6583L333.415 42.2433L334.12 42.9483Z" fill="#8C9EB0"/>
</g>
<defs>
<clipPath id="clip0_1_565">
<rect width="10" height="10" fill="white" transform="translate(21.6666 39.3633)"/>
</clipPath>
<clipPath id="clip1_1_565">
<rect width="10" height="10" fill="white" transform="translate(225.222 39.3633)"/>
</clipPath>
<clipPath id="clip2_1_565">
<rect width="10" height="10" fill="white" transform="translate(293.074 39.3633)"/>
</clipPath>
<clipPath id="clip3_1_565">
<rect width="10" height="10" fill="white" transform="translate(327 39.3633)"/>
</clipPath>
</defs>
</svg>
